<?xml version="1.0" standalone="no"?>
<!DOCTYPE svg PUBLIC "-//W3C//DTD SVG 20010904//EN"
 "http://www.w3.org/TR/2001/REC-SVG-20010904/DTD/svg10.dtd">
<svg version="1.0" xmlns="http://www.w3.org/2000/svg"
 width="512.000000pt" height="512.000000pt" viewBox="0 0 512.000000 512.000000"
 preserveAspectRatio="xMidYMid meet">
<metadata>
Created by potrace 1.16, written by Peter Selinger 2001-2019
</metadata>
<g transform="translate(0.000000,512.000000) scale(0.100000,-0.100000)"
fill="#000000" stroke="none">
<path d="M1283 4505 c-37 -74 -65 -136 -62 -139 3 -3 763 -391 1690 -862 926
-470 1707 -873 1735 -894 28 -21 68 -64 89 -96 62 -92 76 -154 82 -351 l6
-173 -2412 0 -2411 0 0 -432 c0 -346 3 -446 15 -496 57 -240 225 -436 455
-529 138 -55 12 -53 2423 -53 l2227 0 0 944 c0 1053 3 1008 -70 1162 -67 145
-157 245 -290 324 -71 42 -3390 1730 -3403 1730 -4 0 -37 -61 -74 -135z m3537
-3270 l0 -445 -2063 0 c-1868 0 -2069 2 -2118 16 -153 46 -258 144 -311 293
-18 49 -21 88 -25 319 l-6 262 2262 0 2261 0 0 -445z"/>
<path d="M840 1428 c-85 -24 -140 -99 -140 -192 0 -66 12 -101 48 -140 59 -63
159 -83 237 -47 79 37 115 95 115 187 0 95 -55 168 -145 193 -47 13 -68 13
-115 -1z"/>
<path d="M750 2335 l0 -155 1685 0 1685 0 0 155 0 155 -1685 0 -1685 0 0 -155z"/>
</g>
</svg>
